<svg width="24" height="24" viewBox="0 0 24 24" fill="none" xmlns="http://www.w3.org/2000/svg">
<rect x="4.91155" y="7.68466" width="2.29492" height="8.39663" rx="1.14746" stroke="#333333" stroke-width="0.6"/>
<rect x="1.7" y="9.37958" width="2.29492" height="5.00679" rx="1.14746" stroke="#333333" stroke-width="0.6"/>
<rect x="5.8894" y="10.6965" width="0.338984" height="4.0678" rx="0.169492" fill="#333333"/>
<rect x="2.67798" y="11.7135" width="0.338984" height="2.0339" rx="0.169492" fill="#333333"/>
<rect x="-0.3" y="0.3" width="2.29492" height="8.39663" rx="1.14746" transform="matrix(1 0 0 -1 20.3051 16.3813)" stroke="#333333" stroke-width="0.6"/>
<rect x="-0.3" y="0.3" width="2.29492" height="5.00679" rx="1.14746" transform="matrix(1 0 0 -1 17.0938 14.6864)" stroke="#333333" stroke-width="0.6"/>
<rect width="0.338984" height="4.0678" rx="0.169492" transform="matrix(1 0 0 -1 20.9832 13.0694)" fill="#333333"/>
<rect width="0.338984" height="2.0339" rx="0.169492" transform="matrix(1 0 0 -1 17.7716 12.0525)" fill="#333333"/>
<path d="M15.9167 11.9811C15.9167 11.705 15.6928 11.4811 15.4167 11.4811C15.1405 11.4811 14.9167 11.705 14.9167 11.9811H15.4167H15.9167ZM9.20837 11.9811C9.20837 11.705 8.98452 11.4811 8.70837 11.4811C8.43223 11.4811 8.20837 11.705 8.20837 11.9811H8.70837H9.20837ZM13.7396 10.304H13.2396V11.9811H13.7396H14.2396V10.304H13.7396ZM10.3855 11.9811H10.8855V10.304H10.3855H9.88545V11.9811H10.3855ZM12.0625 13.6582V13.1582C11.4124 13.1582 10.8855 12.6312 10.8855 11.9811H10.3855H9.88545C9.88545 13.1835 10.8602 14.1582 12.0625 14.1582V13.6582ZM13.7396 11.9811H13.2396C13.2396 12.6312 12.7126 13.1582 12.0625 13.1582V13.6582V14.1582C13.2649 14.1582 14.2396 13.1835 14.2396 11.9811H13.7396ZM12.0625 8.62695V9.12695C12.7126 9.12695 13.2396 9.65395 13.2396 10.304H13.7396H14.2396C14.2396 9.10166 13.2649 8.12695 12.0625 8.12695V8.62695ZM12.0625 8.62695V8.12695C10.8602 8.12695 9.88545 9.10166 9.88545 10.304H10.3855H10.8855C10.8855 9.65395 11.4124 9.12695 12.0625 9.12695V8.62695ZM15.4167 11.9811H14.9167C14.9167 13.5574 13.6388 14.8353 12.0625 14.8353V15.3353V15.8353C14.1911 15.8353 15.9167 14.1097 15.9167 11.9811H15.4167ZM12.0625 15.3353V14.8353C10.4862 14.8353 9.20837 13.5574 9.20837 11.9811H8.70837H8.20837C8.20837 14.1097 9.93394 15.8353 12.0625 15.8353V15.3353Z" fill="#333333"/>
</svg>
