<svg width="855" height="163" viewBox="0 0 855 163" fill="none" xmlns="http://www.w3.org/2000/svg">
<path fill-rule="evenodd" clip-rule="evenodd" d="M166.705 76.3719C166.704 76.1492 166.702 75.9266 166.699 75.7045C166.703 75.9144 166.705 76.1245 166.705 76.335C166.705 76.3473 166.705 76.3596 166.705 76.3719ZM27.9563 75.9798C27.9552 76.0981 27.9546 76.2165 27.9546 76.335V76.3863C27.9548 76.1588 27.9566 75.9315 27.96 75.7045C27.9584 75.7962 27.9572 75.888 27.9563 75.9798Z" fill="white"/>
<path fill-rule="evenodd" clip-rule="evenodd" d="M166.705 75.7045C166.234 46.7026 135.354 23.3028 97.3296 23.3028C59.3052 23.3028 28.425 46.7026 27.9546 75.7045C28.4249 41.5537 59.305 14 97.3296 14C135.354 14 166.234 41.5537 166.705 75.7045Z" fill="white"/>
<path fill-rule="evenodd" clip-rule="evenodd" d="M166.705 87.2955C166.234 116.297 135.354 139.697 97.3296 139.697C59.3052 139.697 28.425 116.297 27.9546 87.2955C28.4249 121.446 59.305 149 97.3296 149C135.354 149 166.234 121.446 166.705 87.2955Z" fill="white"/>
<path fill-rule="evenodd" clip-rule="evenodd" d="M194.318 100.25V63.0909C194.318 72.4031 150.819 79.9521 97.1591 79.9521C43.4996 79.9521 0 72.4031 0 63.0909V100.25C0 90.9378 43.4996 83.3888 97.1591 83.3888C150.819 83.3888 194.318 90.9378 194.318 100.25Z" fill="white"/>
<path d="M279.678 130.768C273.241 130.768 267.189 129.499 261.522 126.96C255.856 124.376 250.869 120.817 246.562 116.284C242.256 111.751 238.878 106.515 236.43 100.576C233.982 94.592 232.758 88.2 232.758 81.4C232.758 74.6 233.982 68.2307 236.43 62.292C238.878 56.308 242.256 51.0493 246.562 46.516C250.869 41.9827 255.856 38.4467 261.522 35.908C267.189 33.324 273.241 32.032 279.678 32.032C286.161 32.032 292.236 33.324 297.902 35.908C303.569 38.4467 308.556 41.9827 312.862 46.516C317.169 51.0493 320.524 56.308 322.926 62.292C325.374 68.2307 326.598 74.6 326.598 81.4C326.598 88.2 325.374 94.592 322.926 100.576C320.524 106.515 317.169 111.751 312.862 116.284C308.556 120.817 303.569 124.376 297.902 126.96C292.236 129.499 286.161 130.768 279.678 130.768ZM279.678 116.624C284.212 116.624 288.45 115.695 292.394 113.836C296.338 111.977 299.806 109.439 302.798 106.22C305.836 102.956 308.193 99.216 309.87 95C311.593 90.7387 312.454 86.2053 312.454 81.4C312.454 76.5947 311.593 72.0613 309.87 67.8C308.193 63.5387 305.836 59.7987 302.798 56.58C299.806 53.316 296.338 50.7773 292.394 48.964C288.45 47.1053 284.212 46.176 279.678 46.176C275.145 46.176 270.906 47.1053 266.962 48.964C263.018 50.8227 259.528 53.384 256.49 56.648C253.498 59.8667 251.141 63.6067 249.418 67.868C247.741 72.084 246.902 76.5947 246.902 81.4C246.902 86.2507 247.741 90.8067 249.418 95.068C251.141 99.284 253.498 103.024 256.49 106.288C259.528 109.507 263.018 112.045 266.962 113.904C270.906 115.717 275.145 116.624 279.678 116.624ZM354.279 163H340.135V61H354.279V70.996C356.545 67.5053 359.447 64.672 362.983 62.496C366.519 60.32 370.689 59.232 375.495 59.232C380.436 59.232 385.06 60.1613 389.367 62.02C393.719 63.8787 397.527 66.4627 400.791 69.772C404.055 73.036 406.616 76.8213 408.475 81.128C410.333 85.4347 411.263 90.0587 411.263 95C411.263 99.9413 410.333 104.588 408.475 108.94C406.616 113.292 404.055 117.123 400.791 120.432C397.527 123.696 393.719 126.257 389.367 128.116C385.06 129.975 380.436 130.904 375.495 130.904C370.689 130.904 366.519 129.816 362.983 127.64C359.447 125.419 356.545 122.585 354.279 119.14V163ZM375.359 72.9C371.415 72.9 367.947 73.8973 364.955 75.892C361.963 77.8867 359.628 80.5613 357.951 83.916C356.273 87.2253 355.435 90.92 355.435 95C355.435 99.08 356.273 102.797 357.951 106.152C359.628 109.507 361.963 112.181 364.955 114.176C367.947 116.171 371.415 117.168 375.359 117.168C379.257 117.168 382.839 116.193 386.103 114.244C389.367 112.249 391.973 109.575 393.923 106.22C395.872 102.865 396.847 99.1253 396.847 95C396.847 90.9653 395.872 87.2707 393.923 83.916C392.019 80.5613 389.435 77.8867 386.171 75.892C382.907 73.8973 379.303 72.9 375.359 72.9ZM452.133 130.768C445.877 130.768 440.165 129.159 434.997 125.94C429.874 122.721 425.771 118.415 422.689 113.02C419.651 107.58 418.133 101.573 418.133 95C418.133 90.0133 419.017 85.3667 420.785 81.06C422.553 76.708 424.978 72.9 428.061 69.636C431.189 66.3267 434.815 63.7427 438.941 61.884C443.066 60.0253 447.463 59.096 452.133 59.096C457.346 59.096 462.129 60.184 466.481 62.36C470.833 64.4907 474.55 67.46 477.633 71.268C480.715 75.0307 482.982 79.3827 484.433 84.324C485.883 89.22 486.314 94.4333 485.725 99.964H433.297C433.886 103.092 435.019 105.925 436.697 108.464C438.419 110.957 440.595 112.929 443.225 114.38C445.899 115.831 448.869 116.579 452.133 116.624C455.578 116.624 458.706 115.763 461.517 114.04C464.373 112.317 466.707 109.937 468.521 106.9L482.869 110.232C480.149 116.261 476.046 121.203 470.561 125.056C465.075 128.864 458.933 130.768 452.133 130.768ZM432.821 89.152H471.445C470.991 85.888 469.835 82.9413 467.977 80.312C466.163 77.6373 463.874 75.5293 461.109 73.988C458.389 72.4013 455.397 71.608 452.133 71.608C448.914 71.608 445.922 72.3787 443.157 73.92C440.437 75.4613 438.17 77.5693 436.357 80.244C434.589 82.8733 433.41 85.8427 432.821 89.152ZM558.186 86.364V129H544.042V89.832C544.042 86.7947 543.294 84.0293 541.798 81.536C540.348 79.0427 538.376 77.0707 535.882 75.62C533.434 74.124 530.669 73.376 527.586 73.376C524.594 73.376 521.852 74.124 519.358 75.62C516.865 77.0707 514.87 79.0427 513.374 81.536C511.878 84.0293 511.13 86.7947 511.13 89.832V129H496.986V61H511.13V68.208C513.488 65.3973 516.389 63.176 519.834 61.544C523.28 59.912 526.997 59.096 530.986 59.096C536.018 59.096 540.597 60.32 544.722 62.768C548.848 65.216 552.112 68.5027 554.514 72.628C556.962 76.7533 558.186 81.332 558.186 86.364ZM615.824 130.768C609.386 130.768 603.334 129.499 597.668 126.96C592.001 124.376 587.014 120.84 582.708 116.352C578.446 111.819 575.092 106.583 572.644 100.644C570.241 94.66 569.04 88.2453 569.04 81.4C569.04 74.6 570.241 68.2307 572.644 62.292C575.092 56.308 578.446 51.0493 582.708 46.516C587.014 41.9827 592.001 38.4467 597.668 35.908C603.334 33.324 609.386 32.032 615.824 32.032C623.53 32.032 630.625 33.8227 637.108 37.404C643.59 40.9853 648.962 45.768 653.224 51.752L648.124 54.472C644.406 49.3947 639.669 45.36 633.912 42.368C628.154 39.376 622.125 37.88 615.824 37.88C610.112 37.88 604.762 39.036 599.776 41.348C594.834 43.66 590.482 46.8333 586.72 50.868C583.002 54.8573 580.101 59.4813 578.016 64.74C575.93 69.9987 574.888 75.552 574.888 81.4C574.888 87.384 575.953 93.0053 578.084 98.264C580.214 103.523 583.161 108.169 586.924 112.204C590.686 116.193 595.038 119.321 599.98 121.588C604.921 123.809 610.202 124.92 615.824 124.92C622.442 124.92 628.585 123.401 634.252 120.364C639.918 117.281 644.542 113.292 648.124 108.396L653.224 111.184C648.962 117.168 643.59 121.928 637.108 125.464C630.625 129 623.53 130.768 615.824 130.768ZM725.515 87.384V129H719.667V87.996C719.667 83.7347 718.624 79.8813 716.539 76.436C714.499 72.9453 711.734 70.1573 708.243 68.072C704.752 65.9867 700.899 64.944 696.683 64.944C692.422 64.944 688.546 65.9867 685.055 68.072C681.564 70.1573 678.776 72.9453 676.691 76.436C674.651 79.8813 673.631 83.7347 673.631 87.996V129H667.783V27H673.631V72.084C676.079 68.14 679.388 64.9893 683.559 62.632C687.73 60.2747 692.286 59.096 697.227 59.096C702.44 59.096 707.178 60.3653 711.439 62.904C715.746 65.4427 719.168 68.8653 721.707 73.172C724.246 77.4333 725.515 82.1707 725.515 87.384ZM796.051 61H801.899V129H796.051L795.915 114.176C793.558 119.117 790.135 123.129 785.647 126.212C781.159 129.249 775.787 130.768 769.531 130.768C764.59 130.768 759.943 129.839 755.591 127.98C751.285 126.121 747.477 123.537 744.167 120.228C740.903 116.919 738.342 113.111 736.483 108.804C734.625 104.497 733.695 99.8507 733.695 94.864C733.695 89.9227 734.625 85.2987 736.483 80.992C738.342 76.64 740.903 72.832 744.167 69.568C747.431 66.304 751.217 63.7427 755.523 61.884C759.83 60.0253 764.431 59.096 769.327 59.096C775.674 59.096 781.114 60.6373 785.647 63.72C790.181 66.7573 793.694 70.7693 796.187 75.756L796.051 61ZM769.463 124.988C774.994 124.988 779.709 123.651 783.607 120.976C787.506 118.256 790.475 114.629 792.515 110.096C794.601 105.517 795.643 100.485 795.643 95C795.643 89.3787 794.601 84.3013 792.515 79.768C790.43 75.1893 787.415 71.5627 783.471 68.888C779.573 66.2133 774.903 64.876 769.463 64.876C763.978 64.876 758.969 66.236 754.435 68.956C749.902 71.6307 746.298 75.2573 743.623 79.836C740.949 84.4147 739.611 89.4693 739.611 95C739.611 100.621 740.994 105.699 743.759 110.232C746.525 114.765 750.151 118.369 754.639 121.044C759.173 123.673 764.114 124.988 769.463 124.988ZM849.335 66.848H831.519L831.383 129H825.535L825.671 66.848H812.207V61H825.671L825.535 39.648H831.383L831.519 61H849.335V66.848Z" fill="white"/>
</svg>
